<?xml version="1.0" standalone="no"?>
<!DOCTYPE svg PUBLIC "-//W3C//DTD SVG 1.1//EN" "http://www.w3.org/Graphics/SVG/1.1/DTD/svg11.dtd">
<svg version="1.1" viewBox="0 0 1000 1398.79">
<rect width="100%" height="100%" fill="white"/>
<polyline fill="none" stroke="black" stroke-width="0.5" points="270.612,1049.77 270.612,1039.66 260.496,1044.71 260.799,1032.47 257.967,1019.42 257.967,1004.25 270.612,1004.25 270.612,989.074 270.612,978.958 270.612,968.842 270.612,953.667 265.554,943.551 280.728,943.551 298.432,928.376 308.548,923.318 318.665,928.376 308.548,938.493 308.548,951.138 308.548,961.254 298.432,978.958 285.787,984.016 300.961,989.074 316.136,989.074 336.368,968.842 326.252,968.842 318.665,963.784 318.665,953.667 318.665,943.551 326.252,938.493 336.368,938.493 346.485,928.376 366.717,928.376 376.834,928.376 397.066,928.376 407.183,938.493 417.299,938.493 424.886,928.376 435.003,923.318 445.119,928.376 435.003,938.493 424.886,943.551 424.886,953.667 435.003,953.667 435.003,963.784 424.886,963.784 417.299,971.371 407.183,971.371 427.415,989.074 442.59,989.074 445.119,978.958 452.706,989.074 447.648,1004.25 437.532,1009.31 432.473,1019.42 447.648,1019.42 457.764,1014.37 457.764,1039.66 457.764,1054.83 457.764,1064.95 457.764,1080.12 442.59,1113 432.473,1115.53 442.59,1133.23 432.473,1155.99 447.648,1181.28 447.648,1196.46 432.473,1191.4 417.299,1191.4 432.473,1211.63 442.59,1221.75 422.357,1221.75 412.241,1241.98 407.183,1257.16 402.124,1267.27 422.357,1262.22 432.473,1272.33 442.59,1262.22 447.648,1277.39 462.822,1277.39 457.764,1287.51 442.59,1287.51 422.357,1297.62 404.654,1292.56 404.654,1302.68 392.008,1312.8 376.834,1312.8 381.892,1327.97 389.479,1338.09 379.363,1338.09 361.659,1327.97 361.659,1317.86 351.543,1322.91 341.426,1327.97 331.31,1322.91 331.31,1312.8 341.426,1312.8 351.543,1307.74 361.659,1302.68 374.305,1290.04 359.13,1290.04 346.485,1297.62 326.252,1297.62 321.194,1274.86 331.31,1272.33 351.543,1272.33 351.543,1257.16 336.368,1257.16 326.252,1257.16 311.077,1257.16 316.136,1247.04 306.019,1229.34 290.845,1229.34 263.025,1229.34 270.612,1221.75 265.554,1211.63 285.787,1211.63 306.019,1201.52 295.903,1191.4 306.019,1181.28 300.961,1158.52 285.787,1171.17 263.025,1171.17 263.025,1150.94 225.089,1150.94 225.089,1166.11 209.914,1166.11 209.914,1181.28 225.089,1181.28 225.089,1201.52 225.089,1221.75 224.987,1240.36 225.089,1240.47 224.987,1255.54 225.089,1255.64 225.089,1270.81 224.987,1270.81 225.089,1285.99 225.089,1286.09 214.972,1297.62 225.089,1302.68 225.089,1312.8 225.089,1322.91 225.089,1333.03 225.089,1343.15 225.089,1353.26 225.089,1363.38 189.378,1398.28 199.798,1398.79 220.03,1398.79 257.967,1383.61 268.083,1393.73 268.083,1373.5 260.496,1353.26 260.496,1338.09 275.67,1333.03 270.612,1322.91 260.496,1322.91 260.496,1307.74 270.612,1302.68 285.787,1297.62 285.787,1287.51 285.787,1277.39 285.787,1262.22 295.903,1257.16 295.903,1272.33 300.961,1287.51 300.961,1297.62 311.077,1312.8 306.019,1338.09 295.903,1338.09 285.787,1348.2 275.67,1348.2 275.67,1358.32 285.787,1363.38 306.019,1373.5 316.136,1368.44 316.136,1378.55 311.077,1393.73 326.252,1393.73 336.368,1393.73 346.485,1393.73 356.601,1393.73 379.363,1378.55 379.363,1363.38 379.363,1353.26 394.537,1373.5 386.95,1388.67 397.066,1398.79 402.124,1388.67 417.299,1398.79 420.132,1386.44 447.344,1398.28 457.764,1398.79 477.997,1398.79 483.055,1363.38 483.055,1353.26 483.055,1343.15 483.055,1333.03 483.055,1322.91 483.055,1312.8 483.055,1302.68 472.939,1297.62 483.055,1286.09 483.055,1285.99 483.055,1270.81 482.954,1270.81 483.055,1255.64 482.954,1255.54 483.055,1240.47 482.954,1240.36 483.055,1221.75 483.055,1201.52 483.055,1181.28 467.881,1181.28 467.881,1166.11 483.055,1166.11 483.055,1150.94 520.991,1150.94 520.991,1171.17 543.753,1171.17 558.928,1158.52 563.986,1181.28 553.869,1191.4 563.986,1201.52 543.753,1211.63 523.52,1211.63 528.579,1221.75 520.991,1229.34 548.811,1229.34 563.986,1229.34 574.102,1247.04 569.044,1257.16 579.16,1274.86 589.277,1272.33 584.219,1257.16 594.335,1257.16 609.509,1257.16 609.509,1272.33 617.097,1290.04 632.271,1290.04 619.626,1302.68 619.626,1317.86 619.626,1327.97 609.509,1322.91 599.393,1327.97 589.277,1322.91 589.277,1312.8 599.393,1312.8 609.509,1307.74 604.451,1297.62 584.219,1297.62 569.044,1312.8 558.928,1297.62 558.928,1287.51 553.869,1272.33 553.869,1257.16 543.753,1262.22 543.753,1277.39 543.753,1287.51 543.753,1297.62 528.579,1302.68 518.462,1307.74 518.462,1322.91 528.579,1322.91 533.637,1333.03 518.462,1338.09 518.462,1353.26 526.05,1373.5 515.933,1383.61 526.05,1393.73 543.753,1363.38 533.637,1358.32 533.637,1348.2 543.753,1348.2 553.869,1338.09 563.986,1338.09 574.102,1368.44 563.986,1373.5 574.102,1378.55 569.044,1393.73 584.219,1393.73 594.335,1393.73 604.451,1393.73 614.568,1393.73 637.329,1378.55 644.917,1388.67 655.033,1398.79 675.266,1398.79 678.098,1386.44 660.091,1388.67 652.504,1373.5 637.329,1363.38 637.329,1353.26 637.329,1338.09 647.446,1338.09 639.858,1327.97 634.8,1312.8 649.975,1312.8 662.62,1302.68 662.62,1292.56 680.324,1297.62 700.556,1287.51 715.731,1287.51 720.789,1277.39 705.615,1277.39 700.556,1262.22 690.44,1272.33 680.324,1262.22 660.091,1267.27 665.149,1257.16 670.207,1241.98 680.324,1221.75 700.556,1221.75 690.44,1211.63 675.266,1191.4 690.44,1191.4 705.615,1196.46 705.615,1181.28 725.847,1181.28 741.022,1181.28 741.022,1201.52 741.022,1221.75 740.921,1240.36 741.022,1240.47 740.921,1255.54 741.022,1255.64 741.022,1270.81 740.921,1270.81 741.022,1285.99 741.022,1286.09 730.905,1297.62 741.022,1302.68 741.022,1312.8 741.022,1322.91 741.022,1333.03 741.022,1343.15 741.022,1353.26 741.022,1363.38 705.311,1398.28 715.731,1398.79 735.964,1398.79 773.9,1383.61 784.016,1393.73 784.016,1373.5 776.429,1353.26 776.429,1338.09 791.603,1333.03 786.545,1322.91 776.429,1322.91 776.429,1307.74 786.545,1302.68 801.72,1297.62 801.72,1287.51 801.72,1277.39 801.72,1262.22 811.836,1257.16 811.836,1272.33 816.894,1287.51 816.894,1297.62 827.011,1312.8 821.952,1338.09 811.836,1338.09 801.72,1348.2 791.603,1348.2 791.603,1358.32 801.72,1363.38 821.952,1373.5 832.069,1368.44 832.069,1378.55 827.011,1393.73 842.185,1393.73 852.301,1393.73 862.418,1393.73 872.534,1393.73 895.296,1378.55 895.296,1363.38 895.296,1353.26 910.47,1373.5 902.883,1388.67 912.999,1398.79 918.058,1388.67 933.232,1398.79 936.065,1386.44 963.278,1398.28 973.698,1398.79 993.93,1398.79 998.988,1363.38 998.988,1353.26 998.988,1343.15 998.988,1333.03 998.988,1322.91 998.988,1312.8 998.988,1302.68 988.872,1297.62 998.988,1286.09 998.988,1285.99 998.887,1270.81 998.988,1270.81 998.988,1255.64 998.887,1255.54 998.988,1240.47 998.887,1240.36 998.988,1221.75 998.988,1201.52 998.988,1181.28 983.814,1181.28 983.814,1166.11 998.988,1166.11 998.988,1150.94 958.523,1113 948.407,1115.53 958.523,1133.23 948.407,1155.99 963.581,1181.28 963.581,1196.46 948.407,1191.4 933.232,1191.4 948.407,1211.63 958.523,1221.75 938.29,1221.75 928.174,1241.98 923.116,1257.16 918.058,1267.27 938.29,1262.22 948.407,1272.33 958.523,1262.22 963.581,1277.39 978.756,1277.39 973.698,1287.51 958.523,1287.51 938.29,1297.62 920.587,1292.56 920.587,1302.68 907.941,1312.8 892.767,1312.8 897.825,1327.97 905.412,1338.09 895.296,1338.09 877.592,1327.97 877.592,1317.86 867.476,1322.91 857.36,1327.97 847.243,1322.91 847.243,1312.8 857.36,1312.8 867.476,1307.74 877.592,1302.68 890.238,1290.04 875.063,1290.04 862.418,1297.62 842.185,1297.62 837.127,1274.86 847.243,1272.33 867.476,1272.33 867.476,1257.16 852.301,1257.16 842.185,1257.16 827.011,1257.16 832.069,1247.04 821.952,1229.34 806.778,1229.34 778.958,1229.34 786.545,1221.75 781.487,1211.63 801.72,1211.63 821.952,1201.52 811.836,1191.4 821.952,1181.28 816.894,1158.52 801.72,1171.17 778.958,1171.17 778.958,1150.94 741.022,1150.94 741.022,1166.11 725.847,1166.11 690.44,1155.99 700.556,1133.23 690.44,1115.53 700.556,1113 715.731,1080.12 715.731,1064.95 715.731,1054.83 715.731,1039.66 715.731,1014.37 705.615,1019.42 690.44,1019.42 695.498,1009.31 705.615,1004.25 710.673,989.074 703.085,978.958 700.556,989.074 685.382,989.074 665.149,971.371 675.266,971.371 682.853,963.784 692.969,963.784 692.969,953.667 682.853,953.667 682.853,943.551 675.266,938.493 665.149,938.493 655.033,928.376 634.8,928.376 624.684,928.376 652.504,903.085 652.504,882.853 652.504,842.387 606.98,842.387 606.98,882.853 606.98,903.085 604.451,928.376 594.335,938.493 584.219,938.493 576.631,943.551 576.631,953.667 566.515,951.138 566.515,961.254 576.631,963.784 584.219,968.842 594.335,968.842 574.102,989.074 558.928,989.074 556.399,978.958 543.753,984.016 528.579,968.842 528.579,978.958 528.579,989.074 528.579,1004.25 515.933,1004.25 515.933,1019.42 518.766,1032.47 518.462,1044.71 528.579,1039.66 528.579,1049.77 543.753,1049.77 543.753,1039.66 548.811,1029.54 551.34,1014.37 563.986,1009.31 569.044,1019.42 566.515,1029.54 571.573,1039.66 571.573,1049.77 581.689,1029.54 609.509,1029.54 619.626,1019.42 614.568,1009.31 629.742,999.191 644.917,1009.31 639.858,1019.42 629.742,1014.37 629.742,1029.54 649.975,1029.54 665.149,1029.54 657.562,1037.13 657.562,1047.24 660.091,1057.36 644.917,1057.36 629.742,1057.36 614.568,1057.36 604.451,1057.36 594.335,1057.36 609.509,1115.53 609.509,1125.64 594.335,1125.64 579.16,1115.53 558.928,1118.06 538.796,1103.69 520.991,1110.47 484.067,1073.55 484.067,1058.37 484.067,1043.2 484.067,1028.02 484.067,1012.85 484.067,997.673 467.881,989.074 484.067,982.499 484.067,967.324 472.939,961.254 465.352,966.313 465.352,956.196 472.939,948.609 467.881,938.493 477.997,938.493 523.52,943.551 528.579,953.667 538.695,943.551 556.399,928.376 566.515,938.493 576.631,928.376 566.515,923.318 569.044,908.144 569.044,898.027 558.928,908.144 548.811,903.085 548.811,892.969 531.108,892.969 520.991,872.736 520.991,857.562 520.991,842.387 520.991,832.271 523.52,822.155 523.52,801.922 548.811,801.922 576.834,801.922 604.451,801.922 618.412,774.203 618.614,764.188 618.614,753.971 618.513,743.955 618.513,733.536 618.513,723.318 644.917,726.05 644.917,736.166 644.917,746.282 644.917,766.515 644.917,776.631 655.033,801.922 682.853,801.922 710.673,801.922 725.847,806.98 734.446,774.709 734.547,764.593 734.547,754.476 734.446,744.259 734.446,734.244 734.547,724.127 786.545,726.05 786.545,736.166 786.545,746.282 786.545,766.515 786.545,776.631 781.487,801.922 806.778,801.922 834.8,801.922 862.418,801.922 876.378,774.203 876.581,764.188 876.581,753.971 876.48,743.955 876.48,733.536 876.48,723.318 902.883,726.05 902.883,736.166 902.883,746.282 902.883,766.515 902.883,776.631 912.999,801.922 940.819,801.922 910.47,842.387 864.947,842.387 864.947,882.853 864.947,903.085 827.011,898.027 827.011,908.144 816.894,908.144 806.778,903.085 806.778,892.969 789.074,892.969 778.958,872.736 778.958,857.562 778.958,842.387 778.958,832.271 781.487,822.155 738.493,837.329 738.493,847.446 738.493,857.562 738.493,867.678 738.493,880.324 735.964,900.556 720.789,898.027 708.144,898.027 700.556,908.144 690.44,898.027 690.44,908.144 692.969,923.318 682.853,928.376 692.969,938.493 703.085,928.376 725.847,938.493 735.964,938.493 730.905,948.609 723.318,956.196 723.318,966.313 730.905,961.254 742.033,967.324 742.033,982.499 725.847,989.074 742.033,997.673 742.033,1012.85 742.033,1028.02 742.033,1043.2 742.033,1058.37 742.033,1073.55 778.958,1110.47 796.763,1103.69 816.894,1118.06 837.127,1115.53 852.301,1125.64 867.476,1125.64 867.476,1115.53 852.301,1057.36 862.418,1057.36 872.534,1057.36 887.709,1057.36 902.883,1057.36 918.058,1057.36 915.529,1047.24 915.529,1037.13 923.116,1029.54 907.941,1029.54 887.709,1029.54 887.709,1014.37 897.825,1019.42 902.883,1009.31 887.709,999.191 872.534,1009.31 877.592,1019.42 867.476,1029.54 839.656,1029.54 829.54,1049.77 829.54,1039.66 824.482,1029.54 827.011,1019.42 821.952,1009.31 809.307,1014.37 806.778,1029.54 801.72,1039.66 801.72,1049.77 786.545,1049.77 786.545,1039.66 776.429,1044.71 776.732,1032.47 773.9,1019.42 773.9,1004.25 786.545,1004.25 786.545,989.074 786.545,978.958 786.545,968.842 786.545,953.667 781.487,943.551 796.662,943.551 814.365,928.376 824.482,923.318 834.598,928.376 824.482,938.493 824.482,951.138 824.482,961.254 814.365,978.958 801.72,984.016 816.894,989.074 832.069,989.074 852.301,968.842 842.185,968.842 834.598,963.784 834.598,953.667 834.598,943.551 842.185,938.493 852.301,938.493 862.418,928.376 882.65,928.376 892.767,928.376 910.47,882.853 910.47,903.085 912.999,928.376 923.116,938.493 933.232,938.493 940.819,943.551 940.819,953.667 950.936,953.667 950.936,963.784 940.819,963.784 933.232,971.371 923.116,971.371 943.349,989.074 958.523,989.074 961.052,978.958 968.639,989.074 963.581,1004.25 953.465,1009.31 948.407,1019.42 963.581,1019.42 973.698,1014.37 973.698,1039.66 973.698,1054.83 973.698,1064.95 973.698,1080.12 1000,1073.55 1000,1058.37 1000,1043.2 1000,1028.02 1000,1012.85 1000,997.673 983.814,989.074 1000,982.499 1000,967.324 988.872,961.254 981.285,966.313 981.285,956.196 988.872,948.609 993.93,938.493 983.814,938.493 961.052,928.376 950.936,938.493 940.819,928.376 950.936,923.318 948.407,908.144 948.407,898.027 958.523,908.144 966.11,898.027 978.756,898.027 993.93,900.556 996.459,880.324 996.459,867.678 996.459,857.562 996.459,847.446 996.459,837.329 983.814,806.98 968.639,801.922 992.413,774.709 992.514,764.593 992.514,754.476 992.413,744.259 992.413,734.244 992.514,724.127 963.278,674.962 973.698,675.468 993.93,675.468 998.988,640.061 998.988,629.944 998.988,619.828 998.988,609.712 998.988,599.595 998.988,589.479 998.988,579.363 988.872,574.305 998.988,562.772 998.988,562.671 998.887,547.496 998.988,547.496 998.988,532.322 998.887,532.221 998.988,517.147 998.887,517.046 998.988,498.432 998.988,478.199 998.988,457.967 983.814,457.967 983.814,442.792 998.988,442.792 998.988,427.618 958.523,389.681 948.407,392.21 958.523,409.914 948.407,432.676 963.581,457.967 963.581,473.141 948.407,468.083 933.232,468.083 948.407,488.316 958.523,498.432 938.29,498.432 928.174,518.665 923.116,533.839 918.058,543.955 938.29,538.897 948.407,549.014 958.523,538.897 963.581,554.072 978.756,554.072 973.698,564.188 958.523,564.188 938.29,574.305 920.587,569.246 920.587,579.363 907.941,589.479 892.767,589.479 897.825,604.654 905.412,614.77 895.296,614.77 895.296,629.944 895.296,640.061 910.47,650.177 918.058,665.352 936.065,663.126 933.232,675.468 912.999,675.468 902.883,665.352 895.296,655.235 872.534,670.41 862.418,670.41 852.301,670.41 842.185,670.41 827.011,670.41 832.069,655.235 821.952,650.177 832.069,645.119 821.952,614.77 811.836,614.77 801.72,624.886 791.603,624.886 791.603,635.003 801.72,640.061 784.016,670.41 773.9,660.293 784.016,650.177 776.429,629.944 776.429,614.77 791.603,609.712 786.545,599.595 776.429,599.595 776.429,584.421 786.545,579.363 801.72,574.305 801.72,564.188 801.72,554.072 801.72,538.897 811.836,533.839 811.836,549.014 816.894,564.188 816.894,574.305 827.011,589.479 842.185,574.305 862.418,574.305 867.476,584.421 857.36,589.479 847.243,589.479 847.243,599.595 857.36,604.654 867.476,599.595 877.592,604.654 877.592,594.537 877.592,579.363 890.238,566.717 875.063,566.717 867.476,549.014 867.476,533.839 852.301,533.839 842.185,533.839 847.243,549.014 837.127,551.543 827.011,533.839 832.069,523.723 821.952,506.019 806.778,506.019 778.958,506.019 786.545,498.432 781.487,488.316 801.72,488.316 821.952,478.199 811.836,468.083 821.952,457.967 816.894,435.205 801.72,447.85 778.958,447.85 778.958,427.618 741.022,427.618 741.022,442.792 725.847,442.792 725.847,457.967 741.022,457.967 741.022,478.199 741.022,498.432 740.921,517.046 741.022,517.147 740.921,532.221 741.022,532.322 741.022,547.496 740.921,547.496 741.022,562.671 741.022,562.772 730.905,574.305 741.022,579.363 741.022,589.479 741.022,599.595 741.022,609.712 741.022,619.828 741.022,629.944 741.022,640.061 735.964,675.468 715.731,675.468 705.311,674.962 678.098,663.126 675.266,675.468 660.091,665.352 655.033,675.468 644.917,665.352 652.504,650.177 637.329,629.944 637.329,640.061 637.329,655.235 614.568,670.41 604.451,670.41 594.335,670.41 584.219,670.41 569.044,670.41 574.102,655.235 574.102,645.119 563.986,650.177 543.753,640.061 533.637,635.003 526.05,650.177 515.933,660.293 526.05,670.41 528.579,726.05 528.579,736.166 528.579,746.282 528.579,766.515 528.579,776.631 476.48,774.709 476.581,764.593 476.581,754.476 476.48,744.259 476.48,734.244 476.581,724.127 447.344,674.962 457.764,675.468 477.997,675.468 483.055,640.061 483.055,629.944 483.055,619.828 483.055,609.712 483.055,599.595 483.055,589.479 483.055,579.363 472.939,574.305 483.055,562.772 483.055,562.671 482.954,547.496 483.055,547.496 483.055,532.322 482.954,532.221 483.055,517.147 482.954,517.046 483.055,498.432 483.055,478.199 483.055,457.967 467.881,457.967 467.881,442.792 483.055,442.792 483.055,427.618 520.991,427.618 520.991,447.85 543.753,447.85 558.928,435.205 563.986,457.967 553.869,468.083 563.986,478.199 543.753,488.316 523.52,488.316 528.579,498.432 520.991,506.019 548.811,506.019 563.986,506.019 574.102,523.723 569.044,533.839 553.869,533.839 543.753,538.897 553.869,549.014 543.753,554.072 543.753,564.188 558.928,564.188 558.928,574.305 543.753,574.305 528.579,579.363 518.462,584.421 518.462,599.595 528.579,599.595 533.637,609.712 518.462,614.77 518.462,629.944 533.637,624.886 543.753,624.886 553.869,614.77 563.986,614.77 569.044,589.479 584.219,574.305 579.16,551.543 589.277,549.014 584.219,533.839 594.335,533.839 609.509,533.839 609.509,549.014 617.097,566.717 632.271,566.717 619.626,579.363 609.509,584.421 604.451,574.305 599.393,589.479 589.277,589.479 589.277,599.595 599.393,604.654 609.509,599.595 619.626,594.537 619.626,604.654 637.329,614.77 647.446,614.77 639.858,604.654 634.8,589.479 649.975,589.479 662.62,579.363 662.62,569.246 680.324,574.305 700.556,564.188 715.731,564.188 720.789,554.072 705.615,554.072 700.556,538.897 690.44,549.014 680.324,538.897 660.091,543.955 665.149,533.839 670.207,518.665 680.324,498.432 700.556,498.432 690.44,488.316 675.266,468.083 690.44,468.083 705.615,473.141 705.615,457.967 690.44,432.676 700.556,409.914 690.44,392.21 700.556,389.681 715.731,356.803 715.731,341.629 715.731,331.512 715.731,316.338 705.615,296.105 715.731,291.047 705.615,280.931 695.498,285.989 690.44,296.105 665.149,306.222 649.975,306.222 657.562,313.809 657.562,323.925 660.091,334.041 644.917,334.041 629.742,334.041 629.742,306.222 629.742,291.047 639.858,296.105 644.917,285.989 629.742,275.873 614.568,285.989 619.626,296.105 609.509,306.222 581.689,306.222 569.044,296.105 566.515,306.222 571.573,316.338 571.573,326.454 594.335,334.041 604.451,334.041 614.568,334.041 609.509,392.21 609.509,402.327 594.335,402.327 579.16,392.21 558.928,394.74 538.796,380.374 520.991,387.152 484.067,350.228 484.067,335.053 484.067,319.879 484.067,304.704 484.067,289.53 484.067,274.355 515.933,280.931 528.579,280.931 515.933,296.105 518.766,309.155 518.462,321.396 528.579,316.338 528.579,326.454 543.753,326.454 543.753,316.338 548.811,306.222 551.34,291.047 563.986,285.989 574.102,265.756 558.928,265.756 556.399,255.64 543.753,260.698 528.579,265.756 528.579,255.64 528.579,245.524 528.579,230.349 523.52,220.233 538.695,220.233 556.399,205.058 566.515,200 576.631,205.058 566.515,215.175 566.515,227.82 566.515,237.936 576.631,240.465 584.219,245.524 594.335,245.524 576.631,230.349 576.631,220.233 584.219,215.175 594.335,215.175 604.451,205.058 624.684,205.058 634.8,205.058 655.033,205.058 665.149,215.175 675.266,215.175 682.853,205.058 692.969,200 703.085,205.058 692.969,215.175 682.853,220.233 682.853,230.349 692.969,230.349 692.969,240.465 682.853,240.465 675.266,248.053 665.149,248.053 685.382,265.756 700.556,265.756 703.085,255.64 710.673,265.756 725.847,265.756 723.318,242.994 723.318,232.878 725.847,215.175 735.964,215.175 730.905,225.291 730.905,237.936 742.033,244.006 742.033,259.181 742.033,274.355 742.033,289.53 742.033,304.704 742.033,319.879 742.033,335.053 742.033,350.228 778.958,387.152 796.763,380.374 816.894,394.74 837.127,392.21 852.301,402.327 867.476,402.327 867.476,392.21 852.301,334.041 862.418,334.041 872.534,334.041 887.709,334.041 902.883,334.041 918.058,334.041 915.529,323.925 915.529,313.809 923.116,306.222 907.941,306.222 897.825,296.105 902.883,285.989 887.709,275.873 872.534,285.989 877.592,296.105 887.709,291.047 887.709,306.222 867.476,306.222 839.656,306.222 829.54,326.454 829.54,316.338 824.482,306.222 827.011,296.105 821.952,285.989 809.307,291.047 806.778,306.222 801.72,316.338 801.72,326.454 786.545,326.454 786.545,316.338 776.429,321.396 776.732,309.155 773.9,296.105 773.9,280.931 786.545,280.931 786.545,265.756 786.545,255.64 786.545,245.524 786.545,230.349 781.487,220.233 796.662,220.233 814.365,205.058 824.482,200 834.598,205.058 824.482,215.175 824.482,227.82 824.482,237.936 814.365,255.64 801.72,260.698 816.894,265.756 832.069,265.756 852.301,245.524 842.185,245.524 834.598,240.465 834.598,230.349 834.598,220.233 842.185,215.175 852.301,215.175 862.418,205.058 882.65,205.058 892.767,205.058 912.999,205.058 923.116,215.175 933.232,215.175 940.819,220.233 940.819,230.349 950.936,230.349 950.936,240.465 940.819,240.465 933.232,248.053 923.116,248.053 943.349,265.756 958.523,265.756 961.052,255.64 968.639,265.756 963.581,280.931 953.465,285.989 948.407,296.105 963.581,296.105 973.698,291.047 973.698,316.338 973.698,331.512 973.698,341.629 973.698,356.803 1000,350.228 1000,335.053 1000,319.879 1000,304.704 1000,289.53 1000,274.355 983.814,265.756 1000,259.181 1000,244.006 988.872,237.936 981.285,242.994 981.285,232.878 988.872,225.291 993.93,215.175 983.814,215.175 961.052,205.058 950.936,215.175 940.819,205.058 950.936,200 948.407,184.825 948.407,174.709 958.523,184.825 966.11,174.709 978.756,174.709 993.93,177.238 996.459,157.006 996.459,144.36 996.459,134.244 996.459,124.127 996.459,114.011 983.814,83.6621 992.413,51.391 992.514,41.2747 992.514,31.1583 992.413,20.9408 992.413,10.9256 992.514,0.809307 968.639,78.6039 940.819,78.6039 912.999,78.6039 902.883,53.3131 902.883,43.1968 902.883,22.9641 902.883,12.8477 902.883,2.73141 876.48,0 876.48,10.2175 876.48,20.6373 876.581,30.6525 876.581,40.87 876.378,50.8852 862.418,78.6039 834.8,78.6039 864.947,119.069 910.47,119.069 910.47,159.535 910.47,179.767 864.947,179.767 864.947,159.535 827.011,174.709 827.011,184.825 816.894,184.825 806.778,179.767 806.778,169.651 789.074,169.651 778.958,149.418 778.958,134.244 778.958,119.069 778.958,108.953 781.487,98.8366 781.487,78.6039 806.778,78.6039 786.545,53.3131 786.545,43.1968 786.545,22.9641 786.545,12.8477 786.545,2.73141 734.547,0.809307 734.446,10.9256 734.446,20.9408 734.547,31.1583 734.547,41.2747 734.446,51.391 710.673,78.6039 725.847,83.6621 738.493,114.011 738.493,124.127 738.493,134.244 738.493,144.36 738.493,157.006 735.964,177.238 720.789,174.709 708.144,174.709 700.556,184.825 690.44,184.825 690.44,174.709 652.504,179.767 652.504,159.535 652.504,119.069 682.853,78.6039 655.033,78.6039 644.917,53.3131 644.917,43.1968 644.917,22.9641 644.917,12.8477 644.917,2.73141 618.513,0 618.513,10.2175 618.513,20.6373 618.614,30.6525 618.614,40.87 618.412,50.8852 604.451,78.6039 576.834,78.6039 606.98,119.069 606.98,159.535 606.98,179.767 569.044,174.709 569.044,184.825 558.928,184.825 548.811,179.767 548.811,169.651 531.108,169.651 520.991,149.418 520.991,134.244 520.991,119.069 520.991,108.953 523.52,98.8366 523.52,78.6039 548.811,78.6039 528.579,53.3131 528.579,43.1968 528.579,22.9641 528.579,12.8477 528.579,2.73141 476.581,0.809307 476.48,10.9256 476.48,20.9408 476.581,31.1583 476.581,41.2747 476.48,51.391 452.706,78.6039 467.881,83.6621 480.526,114.011 480.526,124.127 480.526,134.244 480.526,144.36 480.526,157.006 477.997,177.238 462.822,174.709 450.177,174.709 442.59,184.825 432.473,184.825 432.473,174.709 394.537,179.767 394.537,159.535 394.537,119.069 424.886,78.6039 397.066,78.6039 386.95,53.3131 386.95,43.1968 386.95,22.9641 386.95,12.8477 386.95,2.73141 360.546,0 360.546,10.2175 360.546,20.6373 360.647,30.6525 360.647,40.87 360.445,50.8852 346.485,78.6039 318.867,78.6039 349.014,119.069 349.014,159.535 349.014,179.767 311.077,174.709 311.077,184.825 300.961,184.825 290.845,179.767 290.845,169.651 273.141,169.651 263.025,149.418 263.025,134.244 263.025,119.069 263.025,108.953 265.554,98.8366 265.554,78.6039 290.845,78.6039 270.612,53.3131 270.612,43.1968 270.612,22.9641 270.612,12.8477 270.612,2.73141 218.614,0.809307 218.513,10.9256 218.513,20.9408 218.614,31.1583 218.614,41.2747 218.513,51.391 194.74,78.6039 209.914,83.6621 222.559,114.011 222.559,124.127 222.559,134.244 222.559,144.36 222.559,157.006 220.03,177.238 204.856,174.709 192.21,174.709 184.623,184.825 174.507,184.825 174.507,174.709 136.571,159.535 136.571,179.767 139.1,205.058 118.867,205.058 108.751,205.058 88.518,205.058 91.047,179.767 91.047,159.535 91.047,119.069 136.571,119.069 166.92,78.6039 139.1,78.6039 128.983,53.3131 128.983,43.1968 128.983,22.9641 128.983,12.8477 128.983,2.73141 102.58,0 102.58,10.2175 102.58,20.6373 102.681,30.6525 102.681,40.87 102.479,50.8852 88.518,78.6039 60.9004,78.6039 32.8781,78.6039 12.6454,2.73141 12.6454,12.8477 12.6454,22.9641 12.6454,43.1968 12.6454,53.3131 7.58725,78.6039 7.58725,98.8366 5.05817,108.953 5.05817,119.069 5.05817,134.244 5.05817,149.418 15.1745,169.651 32.8781,169.651 32.8781,179.767 42.9944,184.825 53.1108,174.709 53.1108,184.825 50.5817,200 60.698,205.058 78.4016,215.175 68.2853,215.175 60.698,220.233 60.698,230.349 60.698,240.465 68.2853,245.524 78.4016,245.524 58.1689,265.756 42.9944,265.756 27.8199,260.698 40.4654,255.64 50.5817,237.936 50.5817,227.82 50.5817,215.175 40.4654,205.058 22.7618,220.233 7.58725,220.233 12.6454,230.349 12.6454,245.524 12.6454,255.64 12.6454,265.756 12.6454,280.931 0,280.931 0,296.105 2.83257,309.155 2.52908,321.396 12.6454,316.338 12.6454,326.454 27.8199,326.454 27.8199,316.338 32.8781,306.222 35.4072,291.047 48.0526,285.989 53.1108,296.105 50.5817,306.222 65.7562,306.222 55.6399,316.338 55.6399,326.454 78.4016,334.041 88.518,334.041 98.6343,334.041 113.809,334.041 128.983,334.041 144.158,334.041 141.629,323.925 141.629,313.809 134.041,306.222 113.809,306.222 93.5761,306.222 103.692,296.105 98.6343,285.989 113.809,275.873 113.809,291.047 123.925,296.105 128.983,285.989 149.216,306.222 174.507,296.105 179.565,285.989 189.681,296.105 199.798,291.047 189.681,280.931 194.74,265.756 187.152,255.64 184.623,265.756 169.449,265.756 149.216,248.053 159.332,248.053 166.92,240.465 177.036,240.465 177.036,230.349 166.92,230.349 166.92,220.233 159.332,215.175 149.216,215.175 166.92,205.058 177.036,200 177.036,215.175 187.152,205.058 209.914,215.175 220.03,215.175 214.972,225.291 207.385,232.878 207.385,242.994 214.972,237.936 226.1,244.006 226.1,259.181 209.914,265.756 226.1,274.355 226.1,289.53 226.1,304.704 226.1,319.879 226.1,335.053 226.1,350.228 199.798,316.338 199.798,331.512 199.798,341.629 199.798,356.803 184.623,389.681 174.507,392.21 184.623,409.914 174.507,432.676 209.914,442.792 225.089,427.618 225.089,442.792 225.089,457.967 209.914,457.967 189.681,457.967 189.681,473.141 174.507,468.083 159.332,468.083 174.507,488.316 184.623,498.432 164.39,498.432 154.274,518.665 149.216,533.839 144.158,543.955 164.39,538.897 174.507,549.014 184.623,538.897 189.681,554.072 204.856,554.072 199.798,564.188 184.623,564.188 164.39,574.305 146.687,569.246 146.687,579.363 134.041,589.479 118.867,589.479 123.925,604.654 131.512,614.77 121.396,614.77 121.396,629.944 121.396,640.061 136.571,650.177 144.158,665.352 162.165,663.126 159.332,675.468 139.1,675.468 128.983,665.352 121.396,655.235 98.6343,670.41 88.518,670.41 78.4016,670.41 68.2853,670.41 53.1108,670.41 58.1689,655.235 58.1689,645.119 48.0526,650.177 27.8199,640.061 17.7036,635.003 17.7036,624.886 27.8199,624.886 37.9363,614.77 48.0526,614.77 53.1108,589.479 68.2853,574.305 88.518,574.305 93.5761,584.421 83.4598,589.479 73.3434,589.479 73.3434,599.595 83.4598,604.654 93.5761,599.595 103.692,604.654 103.692,594.537 103.692,579.363 116.338,566.717 101.163,566.717 93.5761,549.014 93.5761,533.839 78.4016,533.839 68.2853,533.839 73.3434,549.014 63.2271,551.543 53.1108,533.839 58.1689,523.723 48.0526,506.019 32.8781,506.019 27.8199,488.316 48.0526,478.199 37.9363,468.083 48.0526,457.967 27.8199,447.85 42.9944,435.205 78.4016,402.327 93.5761,402.327 93.5761,392.21 63.2271,392.21 42.9944,394.74 22.8629,380.374 5.05817,387.152 5.05817,427.618 5.05817,447.85 7.58725,488.316 12.6454,498.432 5.05817,506.019 27.8199,538.897 37.9363,533.839 37.9363,549.014 27.8199,554.072 27.8199,564.188 42.9944,564.188 42.9944,574.305 27.8199,574.305 12.6454,579.363 2.52908,584.421 2.52908,599.595 12.6454,599.595 17.7036,609.712 2.52908,614.77 2.52908,629.944 10.1163,650.177 0,660.293 10.1163,670.41 12.6454,726.05 12.6454,736.166 12.6454,746.282 12.6454,766.515 12.6454,776.631 32.8781,801.922 7.58725,801.922 7.58725,822.155 5.05817,832.271 5.05817,842.387 5.05817,857.562 5.05817,872.736 15.1745,892.969 32.8781,892.969 32.8781,903.085 42.9944,908.144 53.1108,908.144 53.1108,898.027 91.047,882.853 91.047,903.085 118.867,928.376 108.751,928.376 88.518,928.376 78.4016,938.493 68.2853,938.493 60.698,943.551 60.698,953.667 60.698,963.784 68.2853,968.842 78.4016,968.842 58.1689,989.074 42.9944,989.074 27.8199,984.016 40.4654,978.958 50.5817,961.254 50.5817,951.138 50.5817,938.493 60.698,928.376 50.5817,923.318 40.4654,928.376 22.7618,943.551 7.58725,943.551 12.6454,953.667 12.6454,968.842 12.6454,978.958 12.6454,989.074 12.6454,1004.25 0,1004.25 0,1019.42 2.83257,1032.47 2.52908,1044.71 12.6454,1039.66 12.6454,1049.77 27.8199,1049.77 27.8199,1039.66 32.8781,1029.54 35.4072,1014.37 48.0526,1009.31 53.1108,1019.42 50.5817,1029.54 55.6399,1039.66 55.6399,1049.77 65.7562,1029.54 93.5761,1029.54 103.692,1019.42 98.6343,1009.31 113.809,999.191 128.983,1009.31 123.925,1019.42 113.809,1014.37 113.809,1029.54 134.041,1029.54 149.216,1029.54 141.629,1037.13 141.629,1047.24 144.158,1057.36 128.983,1057.36 113.809,1057.36 98.6343,1057.36 88.518,1057.36 78.4016,1057.36 93.5761,1115.53 93.5761,1125.64 78.4016,1125.64 63.2271,1115.53 42.9944,1118.06 22.8629,1103.69 5.05817,1110.47 5.05817,1150.94 5.05817,1171.17 27.8199,1171.17 42.9944,1158.52 48.0526,1181.28 37.9363,1191.4 48.0526,1201.52 27.8199,1211.63 7.58725,1211.63 12.6454,1221.75 5.05817,1229.34 32.8781,1229.34 48.0526,1229.34 58.1689,1247.04 53.1108,1257.16 63.2271,1274.86 73.3434,1272.33 68.2853,1257.16 78.4016,1257.16 93.5761,1257.16 93.5761,1272.33 101.163,1290.04 116.338,1290.04 103.692,1302.68 103.692,1317.86 103.692,1327.97 93.5761,1322.91 83.4598,1327.97 73.3434,1322.91 73.3434,1312.8 83.4598,1312.8 93.5761,1307.74 88.518,1297.62 68.2853,1297.62 53.1108,1312.8 42.9944,1297.62 42.9944,1287.51 37.9363,1272.33 37.9363,1257.16 27.8199,1262.22 27.8199,1277.39 27.8199,1287.51 27.8199,1297.62 12.6454,1302.68 2.52908,1307.74 2.52908,1322.91 12.6454,1322.91 17.7036,1333.03 2.52908,1338.09 2.52908,1353.26 10.1163,1373.5 0,1383.61 10.1163,1393.73 27.8199,1363.38 17.7036,1358.32 17.7036,1348.2 27.8199,1348.2 37.9363,1338.09 48.0526,1338.09 58.1689,1368.44 48.0526,1373.5 58.1689,1378.55 53.1108,1393.73 68.2853,1393.73 78.4016,1393.73 88.518,1393.73 98.6343,1393.73 121.396,1378.55 128.983,1388.67 139.1,1398.79 159.332,1398.79 162.165,1386.44 144.158,1388.67 136.571,1373.5 121.396,1363.38 121.396,1353.26 121.396,1338.09 131.512,1338.09 123.925,1327.97 118.867,1312.8 134.041,1312.8 146.687,1302.68 146.687,1292.56 164.39,1297.62 184.623,1287.51 199.798,1287.51 204.856,1277.39 189.681,1277.39 184.623,1262.22 174.507,1272.33 164.39,1262.22 144.158,1267.27 149.216,1257.16 154.274,1241.98 164.39,1221.75 184.623,1221.75 174.507,1211.63 159.332,1191.4 174.507,1191.4 189.681,1196.46 189.681,1181.28 174.507,1155.99 184.623,1133.23 174.507,1115.53 184.623,1113 199.798,1080.12 199.798,1064.95 199.798,1054.83 199.798,1039.66 199.798,1014.37 189.681,1019.42 174.507,1019.42 179.565,1009.31 189.681,1004.25 194.74,989.074 187.152,978.958 184.623,989.074 169.449,989.074 149.216,971.371 159.332,971.371 166.92,963.784 177.036,963.784 177.036,953.667 166.92,953.667 166.92,943.551 159.332,938.493 149.216,938.493 139.1,928.376 136.571,903.085 136.571,882.853 136.571,842.387 91.047,842.387 60.9004,801.922 88.518,801.922 102.479,774.203 102.681,764.188 102.681,753.971 102.58,743.955 102.58,733.536 102.58,723.318 128.983,726.05 128.983,736.166 128.983,746.282 128.983,766.515 128.983,776.631 139.1,801.922 166.92,801.922 194.74,801.922 209.914,806.98 218.513,774.709 218.614,764.593 218.614,754.476 218.513,744.259 218.513,734.244 218.614,724.127 189.378,674.962 199.798,675.468 220.03,675.468 225.089,640.061 225.089,629.944 225.089,619.828 225.089,609.712 225.089,599.595 225.089,589.479 225.089,579.363 214.972,574.305 225.089,562.772 225.089,562.671 225.089,547.496 224.987,547.496 225.089,532.322 224.987,532.221 225.089,517.147 224.987,517.046 225.089,498.432 225.089,478.199 265.554,488.316 263.025,506.019 270.612,498.432 285.787,488.316 290.845,506.019 306.019,506.019 306.019,478.199 295.903,468.083 306.019,457.967 300.961,435.205 285.787,447.85 263.025,447.85 263.025,427.618 263.025,387.152 280.83,380.374 300.961,394.74 321.194,392.21 336.368,402.327 351.543,402.327 351.543,392.21 336.368,334.041 346.485,334.041 356.601,334.041 371.775,334.041 386.95,334.041 402.124,334.041 399.595,323.925 399.595,313.809 407.183,306.222 392.008,306.222 371.775,306.222 371.775,291.047 381.892,296.105 386.95,285.989 371.775,275.873 356.601,285.989 361.659,296.105 351.543,306.222 323.723,306.222 313.606,326.454 313.606,316.338 308.548,306.222 311.077,296.105 306.019,285.989 293.374,291.047 290.845,306.222 285.787,316.338 285.787,326.454 270.612,326.454 270.612,316.338 260.496,321.396 260.799,309.155 257.967,296.105 257.967,280.931 270.612,280.931 270.612,265.756 270.612,255.64 270.612,245.524 270.612,230.349 265.554,220.233 280.728,220.233 298.432,205.058 308.548,200 318.665,205.058 308.548,215.175 308.548,227.82 308.548,237.936 298.432,255.64 285.787,260.698 300.961,265.756 316.136,265.756 336.368,245.524 326.252,245.524 318.665,240.465 318.665,230.349 318.665,220.233 326.252,215.175 336.368,215.175 346.485,205.058 366.717,205.058 376.834,205.058 397.066,205.058 407.183,215.175 417.299,215.175 424.886,220.233 435.003,215.175 424.886,205.058 435.003,200 445.119,205.058 467.881,215.175 477.997,215.175 472.939,225.291 465.352,232.878 465.352,242.994 472.939,237.936 484.067,244.006 484.067,259.181 467.881,265.756 452.706,265.756 445.119,255.64 435.003,240.465 435.003,230.349 424.886,230.349 424.886,240.465 417.299,248.053 407.183,248.053 427.415,265.756 442.59,265.756 447.648,280.931 437.532,285.989 432.473,296.105 447.648,296.105 457.764,291.047 457.764,316.338 457.764,331.512 457.764,341.629 457.764,356.803 442.59,389.681 432.473,392.21 442.59,409.914 432.473,432.676 447.648,457.967 447.648,473.141 432.473,468.083 417.299,468.083 432.473,488.316 442.59,498.432 422.357,498.432 412.241,518.665 407.183,533.839 402.124,543.955 422.357,538.897 432.473,549.014 442.59,538.897 447.648,554.072 462.822,554.072 457.764,564.188 442.59,564.188 422.357,574.305 404.654,569.246 404.654,579.363 392.008,589.479 376.834,589.479 381.892,604.654 389.479,614.77 379.363,614.77 379.363,629.944 379.363,640.061 394.537,650.177 402.124,665.352 420.132,663.126 417.299,675.468 397.066,675.468 386.95,665.352 379.363,655.235 356.601,670.41 346.485,670.41 336.368,670.41 326.252,670.41 311.077,670.41 316.136,655.235 316.136,645.119 306.019,650.177 285.787,640.061 275.67,635.003 275.67,624.886 285.787,624.886 295.903,614.77 306.019,614.77 311.077,589.479 326.252,574.305 346.485,574.305 351.543,584.421 341.426,589.479 331.31,589.479 331.31,599.595 341.426,604.654 351.543,599.595 361.659,604.654 361.659,594.537 361.659,579.363 374.305,566.717 359.13,566.717 351.543,549.014 351.543,533.839 336.368,533.839 331.31,549.014 321.194,551.543 326.252,533.839 316.136,523.723 311.077,533.839 295.903,533.839 285.787,538.897 295.903,549.014 285.787,554.072 285.787,564.188 300.961,564.188 300.961,574.305 285.787,574.305 270.612,579.363 260.496,584.421 260.496,599.595 270.612,599.595 275.67,609.712 260.496,614.77 260.496,629.944 268.083,650.177 257.967,660.293 268.083,670.41 270.612,726.05 270.612,736.166 270.612,746.282 270.612,766.515 270.612,776.631 265.554,801.922 290.845,801.922 318.867,801.922 346.485,801.922 360.445,774.203 360.647,764.188 360.647,753.971 360.546,743.955 360.546,733.536 360.546,723.318 386.95,726.05 386.95,736.166 386.95,746.282 386.95,766.515 386.95,776.631 397.066,801.922 424.886,801.922 452.706,801.922 467.881,806.98 480.526,837.329 480.526,847.446 480.526,857.562 480.526,867.678 480.526,880.324 477.997,900.556 462.822,898.027 450.177,898.027 442.59,908.144 432.473,908.144 432.473,898.027 394.537,903.085 394.537,882.853 394.537,842.387 349.014,842.387 349.014,882.853 349.014,903.085 311.077,898.027 311.077,908.144 300.961,908.144 290.845,903.085 290.845,892.969 273.141,892.969 263.025,872.736 263.025,857.562 263.025,842.387 263.025,832.271 265.554,822.155 222.559,837.329 222.559,847.446 222.559,857.562 222.559,867.678 222.559,880.324 220.03,900.556 204.856,898.027 192.21,898.027 184.623,908.144 174.507,898.027 174.507,908.144 177.036,923.318 166.92,928.376 177.036,938.493 187.152,928.376 209.914,938.493 220.03,938.493 214.972,948.609 207.385,956.196 207.385,966.313 214.972,961.254 226.1,967.324 226.1,982.499 209.914,989.074 226.1,997.673 226.1,1012.85 226.1,1028.02 226.1,1043.2 226.1,1058.37 226.1,1073.55 263.025,1110.47 280.83,1103.69 300.961,1118.06 321.194,1115.53 336.368,1125.64 351.543,1125.64 351.543,1115.53 336.368,1057.36 346.485,1057.36 356.601,1057.36 371.775,1057.36 386.95,1057.36 402.124,1057.36 399.595,1047.24 399.595,1037.13 407.183,1029.54 392.008,1029.54 371.775,1029.54 371.775,1014.37 381.892,1019.42 386.95,1009.31 371.775,999.191 356.601,1009.31 361.659,1019.42 351.543,1029.54 323.723,1029.54 313.606,1049.77 313.606,1039.66 308.548,1029.54 311.077,1019.42 306.019,1009.31 293.374,1014.37 290.845,1029.54 285.787,1039.66 285.787,1049.77 270.612,1049.77"/>
</svg>